<?xml version="1.0" encoding="utf-8"?>
<!-- Generator: Adobe Illustrator 27.5.0, SVG Export Plug-In . SVG Version: 6.00 Build 0)  -->
<svg version="1.1" xmlns="http://www.w3.org/2000/svg" xmlns:xlink="http://www.w3.org/1999/xlink" x="0px" y="0px"
	 viewBox="0 0 500 500" style="enable-background:new 0 0 500 500;" xml:space="preserve">
<g id="Sparkles">
	<g>
		<g>
			<path style="fill:none;stroke:#263238;stroke-width:2;stroke-linecap:round;stroke-linejoin:round;stroke-miterlimit:10;" d="
				M301.467,35.599v4.189"/>
			<path style="fill:none;stroke:#263238;stroke-width:2;stroke-linecap:round;stroke-linejoin:round;stroke-miterlimit:10;" d="
				M301.467,44.51v4.188"/>
			<path style="fill:none;stroke:#263238;stroke-width:2;stroke-linecap:round;stroke-linejoin:round;stroke-miterlimit:10;" d="
				M294.918,42.148h4.188"/>
			<path style="fill:none;stroke:#263238;stroke-width:2;stroke-linecap:round;stroke-linejoin:round;stroke-miterlimit:10;" d="
				M303.828,42.148h4.189"/>
		</g>
		<g>
			<path style="fill:none;stroke:#263238;stroke-width:2;stroke-linecap:round;stroke-linejoin:round;stroke-miterlimit:10;" d="
				M42.607,340.609v4.188"/>
			<path style="fill:none;stroke:#263238;stroke-width:2;stroke-linecap:round;stroke-linejoin:round;stroke-miterlimit:10;" d="
				M42.607,349.521v4.188"/>
			<path style="fill:none;stroke:#263238;stroke-width:2;stroke-linecap:round;stroke-linejoin:round;stroke-miterlimit:10;" d="
				M36.057,347.16h4.189"/>
			<path style="fill:none;stroke:#263238;stroke-width:2;stroke-linecap:round;stroke-linejoin:round;stroke-miterlimit:10;" d="
				M44.968,347.16h4.188"/>
		</g>
		<g>
			<path style="fill:none;stroke:#263238;stroke-width:2;stroke-linecap:round;stroke-linejoin:round;stroke-miterlimit:10;" d="
				M446.128,216.574v4.188"/>
			<path style="fill:none;stroke:#263238;stroke-width:2;stroke-linecap:round;stroke-linejoin:round;stroke-miterlimit:10;" d="
				M446.128,225.484v4.188"/>
			<path style="fill:none;stroke:#263238;stroke-width:2;stroke-linecap:round;stroke-linejoin:round;stroke-miterlimit:10;" d="
				M439.578,223.124h4.188"/>
			<path style="fill:none;stroke:#263238;stroke-width:2;stroke-linecap:round;stroke-linejoin:round;stroke-miterlimit:10;" d="
				M448.489,223.124h4.188"/>
		</g>
	</g>
</g>
<g id="Gears">
	<g>
		<path style="fill:#FFC051;" d="M409.03,310.371l-19.907-2.749l-2.006,6.665c-2.406,0.366-4.75,0.926-7.011,1.707l-5.057-5.024
			l-16.198,11.907l2.966,6.079c-2.033,2.566-3.732,5.395-5.1,8.444l-7.14,0.245l-2.408,19.938l6.522,2.005
			c0.437,2.928,1.18,5.743,2.228,8.453l-4.599,5.201l12.418,15.784l5.71-3.225c2.23,1.648,4.638,3.06,7.21,4.225l0.139,7.023
			l19.888,2.745l2.142-6.623c2.597-0.378,5.13-0.992,7.562-1.851l5.14,4.874l16.195-11.889l-3.152-6.065
			c2.017-2.581,3.695-5.412,5.043-8.474l7.064-0.418l2.407-19.938l-6.585-1.853c-0.449-2.872-1.172-5.649-2.209-8.307l4.961-5.31
			l-12.435-15.808l-6.251,3.307c-2.248-1.638-4.669-3.021-7.259-4.171L409.03,310.371z M396.593,328.902
			c13.697,2.031,23.151,14.779,21.12,28.476c-2.031,13.697-14.779,23.151-28.476,21.12s-23.151-14.778-21.12-28.474
			C370.148,336.326,382.895,326.871,396.593,328.902z"/>
		<path style="fill:none;stroke:#263238;stroke-width:2;stroke-linecap:round;stroke-linejoin:round;stroke-miterlimit:10;" d="
			M424.612,65.34l-1.902,4.103c-1.579,0.017-3.13,0.166-4.654,0.464l-2.79-3.685l-11.485,6.18l1.355,4.171
			c-1.539,1.464-2.887,3.131-4.041,4.967l-4.611-0.488l-3.354,12.593l4.007,1.875c0.014,1.921,0.23,3.802,0.657,5.638l-3.424,2.917
			l6.555,11.276l3.965-1.554c1.284,1.261,2.701,2.382,4.248,3.364l-0.55,4.523l12.534,3.565l1.98-4.064
			c1.702-0.007,3.375-0.169,5.015-0.501l2.866,3.601l11.485-6.179l-1.478-4.171c1.529-1.476,2.871-3.147,4.014-4.992l4.574,0.371
			l3.353-12.593l-4.065-1.788c-0.028-1.885-0.244-3.733-0.669-5.535l3.667-2.97l-6.555-11.277l-4.317,1.558
			c-1.296-1.256-2.73-2.366-4.29-3.34l0.445-4.466L424.612,65.34z M425.633,86.032c5.142,1.462,8.127,6.823,6.665,11.963
			c-1.462,5.14-6.812,8.095-11.954,6.633c-5.14-1.463-8.136-6.79-6.674-11.93C415.133,87.555,420.493,84.569,425.633,86.032z"/>
	</g>
</g>
<g id="Chip">
	<g>
		<path style="fill:#FF367C;" d="M44.477,49.476c0-2.176,1.764-3.94,3.94-3.94H89.37c2.176,0,3.94,1.764,3.94,3.94v40.33
			c0,2.176-1.764,3.94-3.94,3.94H48.417c-2.176,0-3.94-1.764-3.94-3.94V49.476z"/>
		<path style="fill:none;stroke:#FF367C;stroke-width:2;stroke-linecap:round;stroke-linejoin:round;stroke-miterlimit:10;" d="
			M55.221,91.29v34.988l-22.856,31.77"/>
		<path style="fill:none;stroke:#FF367C;stroke-width:2;stroke-linecap:round;stroke-linejoin:round;stroke-miterlimit:10;" d="
			M64.608,92.89v34.988l-22.856,31.77"/>
		<path style="fill:#FF367C;" d="M29.267,158.493c0-1.712,1.387-3.099,3.099-3.099c1.712,0,3.099,1.388,3.099,3.099
			c0,1.711-1.387,3.099-3.099,3.099C30.654,161.592,29.267,160.204,29.267,158.493z"/>
		<path style="fill:#FF367C;" d="M38.653,159.648c0-1.711,1.387-3.099,3.099-3.099c1.711,0,3.099,1.387,3.099,3.099
			c0,1.712-1.387,3.099-3.099,3.099C40.041,162.747,38.653,161.359,38.653,159.648z"/>
		<path style="fill:none;stroke:#FF367C;stroke-width:2;stroke-linecap:round;stroke-linejoin:round;stroke-miterlimit:10;" d="
			M89.081,53.798h34.988l31.77-22.856"/>
		<path style="fill:none;stroke:#FF367C;stroke-width:2;stroke-linecap:round;stroke-linejoin:round;stroke-miterlimit:10;" d="
			M90.681,63.185h34.988l31.769-22.856"/>
		<path style="fill:#FF367C;" d="M156.284,27.843c-1.712,0-3.099,1.387-3.099,3.099c0,1.711,1.387,3.099,3.099,3.099
			c1.711,0,3.099-1.387,3.099-3.099C159.383,29.231,157.995,27.843,156.284,27.843z"/>
		<path style="fill:#FF367C;" d="M157.438,37.23c-1.711,0-3.099,1.388-3.099,3.099c0,1.712,1.387,3.099,3.099,3.099
			c1.712,0,3.099-1.387,3.099-3.099C160.538,38.618,159.15,37.23,157.438,37.23z"/>
		<path style="fill:none;stroke:#FF367C;stroke-width:2;stroke-linecap:round;stroke-linejoin:round;stroke-miterlimit:10;" d="
			M91.7,72.706h11.327"/>
		<path style="fill:none;stroke:#FF367C;stroke-width:2;stroke-linecap:round;stroke-linejoin:round;stroke-miterlimit:10;" d="
			M91.7,82.354h11.327"/>
		<path style="fill:none;stroke:#FF367C;stroke-width:2;stroke-linecap:round;stroke-linejoin:round;stroke-miterlimit:10;" d="
			M64.608,36.445v11.327"/>
		<path style="fill:none;stroke:#FF367C;stroke-width:2;stroke-linecap:round;stroke-linejoin:round;stroke-miterlimit:10;" d="
			M54.96,36.445v11.327"/>
		<path style="fill:none;stroke:#FF367C;stroke-width:2;stroke-linecap:round;stroke-linejoin:round;stroke-miterlimit:10;" d="
			M84.164,36.445v11.327"/>
		<path style="fill:none;stroke:#FF367C;stroke-width:2;stroke-linecap:round;stroke-linejoin:round;stroke-miterlimit:10;" d="
			M74.516,36.445v11.327"/>
		<path style="fill:none;stroke:#FF367C;stroke-width:2;stroke-linecap:round;stroke-linejoin:round;stroke-miterlimit:10;" d="
			M84.164,91.527v11.327"/>
		<path style="fill:none;stroke:#FF367C;stroke-width:2;stroke-linecap:round;stroke-linejoin:round;stroke-miterlimit:10;" d="
			M74.516,91.527v11.327"/>
		<path style="fill:none;stroke:#FF367C;stroke-width:2;stroke-linecap:round;stroke-linejoin:round;stroke-miterlimit:10;" d="
			M45.653,63.185H34.326"/>
		<path style="fill:none;stroke:#FF367C;stroke-width:2;stroke-linecap:round;stroke-linejoin:round;stroke-miterlimit:10;" d="
			M45.653,53.537H34.326"/>
		<path style="fill:none;stroke:#FF367C;stroke-width:2;stroke-linecap:round;stroke-linejoin:round;stroke-miterlimit:10;" d="
			M45.653,82.741H34.326"/>
		<path style="fill:none;stroke:#FF367C;stroke-width:2;stroke-linecap:round;stroke-linejoin:round;stroke-miterlimit:10;" d="
			M45.653,73.093H34.326"/>
	</g>
</g>
<g id="Robot_face">
	<g>
		<path style="fill:none;stroke:#263238;stroke-width:2;stroke-linecap:round;stroke-linejoin:round;stroke-miterlimit:10;" d="
			M138.721,335.682c0,0-19.451,14.089-26.327,25.431c-16.921,27.914,17.577,31.348,36.678,39.306
			c4.779,1.991,3.509,14.878,3.509,14.878"/>
		<path style="fill:none;stroke:#263238;stroke-width:2;stroke-linecap:round;stroke-linejoin:round;stroke-miterlimit:10;" d="
			M151.317,344.053c0,0-27.793,20.15-26.173,28.831c2.455,13.151,28.012,8.623,37.141,21.664c3.016,4.309,4.122,16.463,4.122,16.463
			"/>
		<path style="fill:none;stroke:#263238;stroke-width:2;stroke-linecap:round;stroke-linejoin:round;stroke-miterlimit:10;" d="
			M128.258,344.053l10.463,9.656"/>
		<path style="fill:none;stroke:#263238;stroke-width:2;stroke-linecap:round;stroke-linejoin:round;stroke-miterlimit:10;" d="
			M121.332,350.32l10.463,9.656"/>
		<path style="fill:none;stroke:#263238;stroke-width:2;stroke-linecap:round;stroke-linejoin:round;stroke-miterlimit:10;" d="
			M113.75,359.396l12.813,8.188"/>
		<path style="fill:none;stroke:#263238;stroke-width:2;stroke-linecap:round;stroke-linejoin:round;stroke-miterlimit:10;" d="
			M107.858,371.418l17.285,1.042"/>
		<path style="fill:none;stroke:#263238;stroke-width:2;stroke-linecap:round;stroke-linejoin:round;stroke-miterlimit:10;" d="
			M114.72,385.735l11.238-10.244"/>
		<path style="fill:none;stroke:#263238;stroke-width:2;stroke-linecap:round;stroke-linejoin:round;stroke-miterlimit:10;" d="
			M125.143,392.228l5.5-12.153"/>
		<path style="fill:none;stroke:#263238;stroke-width:2;stroke-linecap:round;stroke-linejoin:round;stroke-miterlimit:10;" d="
			M136.595,395.248l3.967-12.737"/>
		<path style="fill:none;stroke:#263238;stroke-width:2;stroke-linecap:round;stroke-linejoin:round;stroke-miterlimit:10;" d="
			M145.741,398.888l3.966-12.737"/>
		<path style="fill:none;stroke:#263238;stroke-width:2;stroke-linecap:round;stroke-linejoin:round;stroke-miterlimit:10;" d="
			M151.124,401.83l9.554-9.311"/>
		<g id="Layer-14_2_">
			<path style="fill:#263238;" d="M136.03,314.462c2.514-2.867,6.876-3.154,9.743-0.639l26.09,22.875
				c2.867,2.514,3.154,6.876,0.64,9.743l-9.174,10.463c-2.514,2.866-6.876,3.153-9.743,0.639l-26.09-22.876
				c-2.867-2.513-3.154-6.876-0.64-9.742L136.03,314.462z"/>
		</g>
		<path style="fill:none;stroke:#FF367C;stroke-width:2;stroke-linecap:round;stroke-linejoin:round;stroke-miterlimit:10;" d="
			M173.962,404.55l15.781-33.132h111.248l16.748,41.744l-48.311,39.87L173.962,404.55z"/>
		<path style="fill:none;stroke:#FF367C;stroke-width:2;stroke-linecap:round;stroke-linejoin:round;stroke-miterlimit:10;" d="
			M186.121,380.074h118.203"/>
		<path style="fill:none;stroke:#FF367C;stroke-width:2;stroke-linecap:round;stroke-linejoin:round;stroke-miterlimit:10;" d="
			M181.324,388.88h126.119"/>
		<path style="fill:none;stroke:#FF367C;stroke-width:2;stroke-linecap:round;stroke-linejoin:round;stroke-miterlimit:10;" d="
			M177.46,397.686h134.662"/>
		<path style="fill:none;stroke:#FF367C;stroke-width:2;stroke-linecap:round;stroke-linejoin:round;stroke-miterlimit:10;" d="
			M175.547,406.491h135.892"/>
		<path style="fill:none;stroke:#FF367C;stroke-width:2;stroke-linecap:round;stroke-linejoin:round;stroke-miterlimit:10;" d="
			M171.384,415.297h145.097"/>
		<path style="fill:none;stroke:#FF367C;stroke-width:2;stroke-linecap:round;stroke-linejoin:round;stroke-miterlimit:10;" d="
			M172.673,424.104h145.097"/>
		<path style="fill:none;stroke:#FF367C;stroke-width:2;stroke-linecap:round;stroke-linejoin:round;stroke-miterlimit:10;" d="
			M173.301,432.91h145.098"/>
		<g id="Layer-17_2_">
			<path style="fill:#263238;" d="M356.666,407.313c-34.847,0-63.371,29.291-66.328,66.635h132.69
				C420.072,436.604,391.514,407.313,356.666,407.313z"/>
		</g>
		<g id="Layer-15_2_">
			<path style="fill:#FF367C;" d="M176.396,397.686c0,0-38.973,3.194-68.878,22.693c-29.905,19.5-35.984,53.569-35.984,53.569
				h312.521c0,0-13.424-44.195-33.762-59.402s-38.171-16.928-38.171-16.928l-43.951,40.267L176.396,397.686z"/>
		</g>
		<g id="Layer-18_2_">
			<path style="fill:#FFC051;" d="M201.516,419.976l69.774,32.045l38.452-35.233l7.458,6.225l-44.629,41.042l-76.014-34.217
				L201.516,419.976z"/>
		</g>
		<g id="Layer-16_2_">
			<path style="fill:#263238;" d="M112.382,407.313c-34.848,0-63.371,29.291-66.328,66.635h132.69
				C175.788,436.604,147.231,407.313,112.382,407.313z"/>
		</g>
		<g id="Layer-10_2_">
			<path style="fill:#263238;" d="M355.77,144.957c22,7.06,41.047,33.656,40.112,76.948c-1.082,50.099-20.798,76.823-46.485,79.034
				c-0.797,0.069,20.214-25.332,23.214-73.816C375.609,178.64,351.519,143.592,355.77,144.957z"/>
		</g>
		<g id="Layer-2_2_">
			<path style="fill:#FF367C;" d="M96.283,217.893c0-80.345,62.207-145.477,138.941-145.477
				c76.735,0,138.941,65.132,138.941,145.477c0,80.344-62.206,145.476-138.941,145.476C158.49,363.37,96.283,298.238,96.283,217.893
				z"/>
		</g>
		<path style="fill:none;stroke:#263238;stroke-width:2;stroke-linecap:round;stroke-linejoin:round;stroke-miterlimit:10;" d="
			M161.612,247.872l87.987,4.992l12.353,63.067l-13.609,21.897l-15.38-68.289l-74.886-5.234L161.612,247.872z"/>
		<path style="fill:none;stroke:#263238;stroke-width:2;stroke-linecap:round;stroke-linejoin:round;stroke-miterlimit:10;" d="
			M372.61,238.316l-45.496,12.816l-17.372,57.121l10.764,12.779l17.729-59.043l33.088-8.61L372.61,238.316z"/>
		<path style="fill:none;stroke:#263238;stroke-width:2;stroke-linecap:round;stroke-linejoin:round;stroke-miterlimit:10;" d="
			M316.481,336.154l-15.333-19.698l-26.189,1.488l-24.255,44.194"/>
		<path style="fill:none;stroke:#263238;stroke-width:2;stroke-linecap:round;stroke-linejoin:round;stroke-miterlimit:10;" d="
			M233.216,362.138l34.955-55.783l38.78-1.209l19.791,23.213"/>
		<path style="fill:none;stroke:#263238;stroke-width:2;stroke-linecap:round;stroke-linejoin:round;stroke-miterlimit:10;" d="
			M149.072,189.796c0,0,75.201-22.144,138.637-22.837c63.436-0.692,79.122,5.075,79.122,5.075"/>
		<path style="fill:none;stroke:#263238;stroke-width:2;stroke-linecap:round;stroke-linejoin:round;stroke-miterlimit:10;" d="
			M152.581,206.551c0,0,75.201-22.145,138.637-22.837c63.436-0.692,80.105,4.841,80.105,4.841"/>
		<path style="fill:none;stroke:#263238;stroke-width:2;stroke-linecap:round;stroke-linejoin:round;stroke-miterlimit:10;" d="
			M175.224,86.885l15.504,55.369l80.583,24.703"/>
		<path style="fill:none;stroke:#263238;stroke-width:2;stroke-linecap:round;stroke-linejoin:round;stroke-miterlimit:10;" d="
			M302.487,167.298l30.466-38.653l-4.571-18.931"/>
		<path style="fill:#FFFFFF;" d="M199.879,136.349l54.108-6.965l7.474,27.352L199.879,136.349z"/>
		<path style="fill:#FFFFFF;" d="M304.323,126.921l4.671,23.62l17.164-23.62H304.323z"/>
		<path style="fill:#263238;" d="M164.139,193.418c0-1.999,1.623-3.622,3.623-3.622c1.999,0,3.622,1.623,3.622,3.622
			c0,2.001-1.623,3.623-3.622,3.623C165.761,197.041,164.139,195.418,164.139,193.418z"/>
		<path style="fill:#263238;" d="M182.499,189.796c0-2,1.622-3.622,3.622-3.622c2.001,0,3.622,1.623,3.622,3.622
			c0,2-1.621,3.622-3.622,3.622C184.12,193.418,182.499,191.796,182.499,189.796z"/>
		<path style="fill:#263238;" d="M201.516,184.413c0-2.001,1.621-3.622,3.622-3.622c2.001,0,3.622,1.622,3.622,3.622
			c0,2.001-1.621,3.622-3.622,3.622C203.138,188.035,201.516,186.413,201.516,184.413z"/>
		<path style="fill:#263238;" d="M223.268,180.791c0-2,1.621-3.622,3.622-3.622c2.001,0,3.622,1.622,3.622,3.622
			c0,2.001-1.621,3.622-3.622,3.622C224.89,184.413,223.268,182.791,223.268,180.791z"/>
		<path style="fill:#263238;" d="M243.461,178.349c0-2.001,1.622-3.622,3.622-3.622c2.001,0,3.622,1.622,3.622,3.622
			c0,2-1.622,3.622-3.622,3.622C245.082,181.971,243.461,180.35,243.461,178.349z"/>
		<path style="fill:#263238;" d="M322.791,174.348c0.345-1.97,2.222-3.288,4.193-2.944c1.97,0.345,3.289,2.222,2.944,4.193
			c-0.345,1.97-2.222,3.288-4.193,2.944C323.765,178.196,322.447,176.319,322.791,174.348z"/>
		<path style="fill:#263238;" d="M343.102,175.423c0.345-1.97,2.222-3.288,4.193-2.944c1.97,0.345,3.288,2.222,2.944,4.193
			c-0.345,1.97-2.222,3.288-4.193,2.944C344.076,179.27,342.758,177.394,343.102,175.423z"/>
		<path style="fill:#263238;" d="M363.264,179.046c0.344-1.97,2.222-3.289,4.192-2.944c1.97,0.344,3.289,2.222,2.944,4.192
			c-0.344,1.971-2.222,3.289-4.192,2.944C364.237,182.894,362.919,181.016,363.264,179.046z"/>
		<path style="fill:#263238;" d="M242.272,354.611c0.297-1.697,1.913-2.831,3.609-2.535c1.697,0.297,2.831,1.913,2.535,3.61
			c-0.297,1.697-1.913,2.831-3.609,2.534C243.111,357.922,241.976,356.307,242.272,354.611z"/>
		<path style="fill:#263238;" d="M250.752,341.878c0.297-1.696,1.912-2.83,3.609-2.534c1.697,0.297,2.831,1.913,2.535,3.609
			c-0.297,1.697-1.913,2.831-3.61,2.535C251.589,345.191,250.454,343.575,250.752,341.878z"/>
		<path style="fill:#263238;" d="M268.219,312.799c0.296-1.697,1.912-2.831,3.609-2.534c1.697,0.296,2.831,1.912,2.534,3.609
			c-0.296,1.697-1.912,2.831-3.609,2.534C269.057,316.112,267.922,314.496,268.219,312.799z"/>
		<path style="fill:#263238;" d="M258.88,327.467c0.297-1.697,1.913-2.832,3.609-2.534c1.697,0.297,2.831,1.912,2.535,3.609
			c-0.297,1.697-1.913,2.831-3.61,2.535C259.719,330.78,258.584,329.164,258.88,327.467z"/>
		<path style="fill:#263238;" d="M284.147,311.096c0.297-1.697,1.913-2.831,3.61-2.535c1.696,0.297,2.83,1.913,2.534,3.61
			c-0.297,1.697-1.913,2.832-3.609,2.534C284.986,314.408,283.851,312.793,284.147,311.096z"/>
		<path style="fill:#263238;" d="M301.251,311.096c0.297-1.697,1.912-2.831,3.609-2.535c1.697,0.297,2.832,1.913,2.535,3.61
			c-0.297,1.697-1.914,2.832-3.61,2.534C302.089,314.408,300.955,312.793,301.251,311.096z"/>
		<path style="fill:#263238;" d="M312.169,323.612c0.297-1.697,1.913-2.83,3.61-2.534c1.696,0.297,2.83,1.912,2.534,3.609
			c-0.297,1.697-1.913,2.831-3.609,2.535C313.007,326.925,311.873,325.309,312.169,323.612z"/>
		<path style="fill:#FFC051;" d="M230.303,72.856c0,0,21.242,26.555,29.232,47.338c7.991,20.784,12.66,47.372,12.66,47.372
			l-17.186,18.207l-39.885,2.519c-8.006,0.508-14.086,7.41-13.579,15.416l1.191,18.718c0.508,8.006,7.41,14.086,15.416,13.578
			l128.232-8.133c8.006-0.509,14.087-7.445,13.579-15.451l-1.191-18.718c-0.508-8.007-7.41-14.053-15.416-13.544l-23.278,1.464
			l-15.791-16.165c0,0-1.542-23.408-10.04-49.244c-8.496-25.835-18.853-37.605-18.853-37.605s-13.994-3.996-20.658-4.662
			S230.303,72.856,230.303,72.856z"/>
		<path style="fill:#263238;" d="M235.224,208.223c0-7.245,5.873-13.118,13.118-13.118c7.245,0,13.118,5.873,13.118,13.118
			c0,7.245-5.873,13.118-13.118,13.118C241.097,221.341,235.224,215.468,235.224,208.223z"/>
		<path style="fill:#FFFFFF;" d="M245.345,208.223c0-3.623,2.937-6.559,6.559-6.559c3.622,0,6.559,2.936,6.559,6.559
			c0,3.622-2.937,6.559-6.559,6.559C248.282,214.782,245.345,211.845,245.345,208.223z"/>
		<path style="fill:#263238;" d="M319.835,204.775c0-7.245,5.874-13.118,13.118-13.118c7.245,0,13.118,5.873,13.118,13.118
			c0,7.245-5.873,13.118-13.118,13.118C325.71,217.893,319.835,212.02,319.835,204.775z"/>
		<path style="fill:#FFFFFF;" d="M329.956,204.775c0-3.623,2.937-6.559,6.559-6.559c3.623,0,6.559,2.936,6.559,6.559
			c0,3.622-2.936,6.559-6.559,6.559C332.893,211.334,329.956,208.397,329.956,204.775z"/>
		<path style="fill:#263238;" d="M138.721,129.384h36.503v28.501h-36.503V129.384z"/>
		<g id="Layer-12_2_">
			<path style="fill:none;stroke:#FF367C;stroke-width:2;stroke-linecap:round;stroke-linejoin:round;stroke-miterlimit:10;" d="
				M138.721,134.63h36.503"/>
			<path style="fill:none;stroke:#FF367C;stroke-width:2;stroke-linecap:round;stroke-linejoin:round;stroke-miterlimit:10;" d="
				M138.721,140.524h36.503"/>
			<path style="fill:none;stroke:#FF367C;stroke-width:2;stroke-linecap:round;stroke-linejoin:round;stroke-miterlimit:10;" d="
				M138.721,146.419h36.503"/>
			<path style="fill:none;stroke:#FF367C;stroke-width:2;stroke-linecap:round;stroke-linejoin:round;stroke-miterlimit:10;" d="
				M138.721,152.315h36.503"/>
		</g>
		<path style="fill:#263238;" d="M230.337,71.222c-1.387-0.033-2.161,1.571-1.294,2.654c0.04,0.049,2.483,3.2,3.403,4.424
			c2.631,3.499,5.389,7.347,8.134,11.367c7.821,11.45,13.983,22.156,17.424,31.105c1.354,3.522,2.681,7.377,3.948,11.469
			c2.411,7.789,4.557,16.113,6.398,24.469c0.645,2.925,1.193,5.663,1.667,8.099c0.122,0.623,0.315,1.522,0.442,2.212l-16.198,17.152
			l-39.239,2.485c-8.907,0.565-15.675,8.245-15.11,17.152l1.191,18.717c0.565,8.907,8.246,15.675,17.152,15.11l128.232-8.133
			c8.903-0.565,15.675-8.275,15.11-17.187l-1.191-18.717c-0.565-8.902-8.24-15.642-17.152-15.076l-22.086,1.395l-0.442,0.035
			l-14.873-15.212c-0.015-0.21-0.022-0.342-0.034-0.477c-0.074-0.874-0.149-1.88-0.272-3.029c-0.35-3.275-0.825-6.957-1.463-10.958
			c-1.823-11.434-4.524-23.184-8.27-34.576c-1.256-3.818-2.606-7.454-4.016-10.925c-3.293-8.106-6.839-14.934-10.379-20.521
			c-1.245-1.965-2.393-3.652-3.437-5.037c-0.636-0.843-1.102-1.407-1.361-1.702c-0.207-0.235-0.482-0.391-0.783-0.476
			c0,0-1.691-0.477-2.314-0.647c-1.781-0.484-3.641-0.987-5.547-1.463c-5.488-1.371-10.051-2.319-13.068-2.62
			c-2.358-0.236-6.2-0.444-11.094-0.647c-2.951-0.122-11.398-0.384-12.32-0.408C231.171,71.248,230.39,71.224,230.337,71.222z
			 M233.705,74.591c3.123,0.096,7.82,0.25,10.006,0.34c4.833,0.2,8.58,0.419,10.856,0.647c2.813,0.281,7.251,1.184,12.591,2.518
			c1.884,0.471,3.754,0.985,5.514,1.463c0.487,0.132,1.349,0.35,1.803,0.477c0.259,0.318,0.541,0.702,0.884,1.157
			c0.992,1.314,2.104,2.909,3.302,4.799c3.438,5.425,6.888,12.088,10.107,20.01c1.382,3.402,2.681,6.973,3.914,10.72
			c3.687,11.214,6.371,22.794,8.168,34.065c0.628,3.944,1.086,7.568,1.429,10.788c0.121,1.125,0.358,3.527,0.375,3.744
			c0.009,0.119,0,0.238,0,0.238c0.026,0.389,0.205,0.777,0.476,1.055l13.307,13.613l-57.446,3.709l14.396-15.246
			c0.354-0.376,0.498-0.887,0.408-1.396c-0.025-0.144-0.411-2.267-0.578-3.13c-0.479-2.462-1.052-5.182-1.702-8.134
			c-1.858-8.438-4.025-16.891-6.466-24.775c-1.287-4.158-2.601-8.044-3.982-11.639c-3.551-9.236-9.847-20.178-17.799-31.819
			c-2.776-4.063-5.542-7.898-8.202-11.435C234.704,75.878,234.307,75.372,233.705,74.591z M343.458,181.792
			c7.115-0.452,13.23,4.915,13.68,12.013l1.191,18.718c0.452,7.112-4.947,13.264-12.047,13.715l-128.232,8.133
			c-7.106,0.451-13.23-4.94-13.681-12.047l-1.191-18.718c-0.451-7.105,4.941-13.229,12.048-13.68l37.435-2.348l2.45-0.171
			l65.069-4.151l1.19-0.069L343.458,181.792z"/>
		<path style="fill:#263238;" d="M287.243,183.73l-0.791,79.892h30.029l-19.439-80.998L287.243,183.73z"/>
		<path style="fill:#263238;" d="M268.171,283.525h38.096v11.859h-38.096V283.525z"/>
		<g id="Layer-11_2_">
			<path style="fill:#263238;" d="M66.768,237.448c-1.193-45.115,19.61-82.263,46.465-82.973
				c26.854-0.71,54.212,28.15,53.143,81.559c-1.071,53.41-21.97,81.108-48.824,81.818C90.697,318.561,67.961,282.564,66.768,237.448
				z"/>
		</g>
		<path style="fill:none;stroke:#FF367C;stroke-width:2;stroke-linecap:round;stroke-linejoin:round;stroke-miterlimit:10;" d="
			M76.11,236.921c-0.767-31.125,12.62-56.754,29.9-57.243c17.281-0.49,31.911,24.345,32.679,55.469
			c0.768,31.125-12.62,56.754-29.9,57.243C91.509,292.88,76.878,268.045,76.11,236.921z"/>
		<path style="fill:none;stroke:#FF367C;stroke-width:2;stroke-linecap:round;stroke-linejoin:round;stroke-miterlimit:10;" d="
			M112.394,159.788c23.552-0.622,46.982,31.869,46.869,76.245c-0.113,44.377-19.269,76.228-42.821,76.851"/>
		<path style="fill:none;stroke:#FF367C;stroke-width:2;stroke-linecap:round;stroke-linejoin:round;stroke-miterlimit:10;" d="
			M107.518,186.229c12.11-0.343,24.233,20.664,24.276,49.277c0.045,28.614-9.733,49.103-21.841,49.446"/>
		<path style="fill:none;stroke:#FF367C;stroke-width:2;stroke-linecap:round;stroke-linejoin:round;stroke-miterlimit:10;" d="
			M95.132,249.843c0,0,6.67-0.059,10.453-0.165c3.782-0.108,6.812-5.39,6.809-13.958c-0.003-8.568-3.479-14.102-7.475-14.342
			c-3.994-0.242-10.724-0.148-10.724-0.148"/>
		<path style="fill:#FF367C;" d="M86.668,235.812c-0.235-8.892,3.364-16.201,8.038-16.324c4.675-0.124,8.656,6.985,8.891,15.877
			c0.235,8.893-3.364,16.201-8.039,16.326C90.883,251.813,86.903,244.705,86.668,235.812z"/>
	</g>
</g>
</svg>
